<mxfile host="app.diagrams.net" agent="Mozilla/5.0 (Macintosh; Intel Mac OS X 10_15_7) AppleWebKit/537.36 (KHTML, like Gecko) Chrome/132.0.0.0 Safari/537.36" version="26.1.0">
  <diagram name="第 1 页" id="tyca6-RHl7trLcN3MMZb">
    <mxGraphModel dx="3022" dy="-249" grid="1" gridSize="10" guides="1" tooltips="1" connect="1" arrows="1" fold="1" page="1" pageScale="1" pageWidth="827" pageHeight="1169" math="0" shadow="0">
      <root>
        <mxCell id="0" />
        <mxCell id="1" parent="0" />
        <mxCell id="HNTKjAS1W8YU7pz285Al-8" style="edgeStyle=orthogonalEdgeStyle;rounded=0;orthogonalLoop=1;jettySize=auto;html=1;entryX=0.5;entryY=0;entryDx=0;entryDy=0;endArrow=none;startFill=0;" edge="1" parent="1" source="HNTKjAS1W8YU7pz285Al-1" target="HNTKjAS1W8YU7pz285Al-5">
          <mxGeometry relative="1" as="geometry" />
        </mxCell>
        <mxCell id="HNTKjAS1W8YU7pz285Al-1" value="&lt;div style=&quot;text-align: center;&quot;&gt;&lt;span style=&quot;background-color: initial;&quot;&gt;&lt;b&gt;AIMAS_ENGAGEMENT_REQUEST&lt;/b&gt;&lt;/span&gt;&lt;/div&gt;&lt;hr style=&quot;text-align: center;&quot; size=&quot;1&quot;&gt;&lt;p style=&quot;margin:0 0 0 4px;line-height:1.6;&quot;&gt;ID&amp;nbsp; BIGINT AUTOINCREMENT&lt;/p&gt;&lt;p style=&quot;margin:0 0 0 4px;line-height:1.6;&quot;&gt;&lt;br&gt;&lt;/p&gt;&lt;p style=&quot;margin:0 0 0 4px;line-height:1.6;&quot;&gt;`BU_CODE` varchar(32) NOT NULL COMMENT &#39;Bu Code&#39;,&lt;b&gt;&lt;/b&gt;&lt;/p&gt;&lt;p style=&quot;margin:0 0 0 4px;line-height:1.6;&quot;&gt;&#39;SOURCE_CHANNEL&#39; VARCHAR(32)&lt;/p&gt;&lt;p style=&quot;margin: 0px 0px 0px 4px; line-height: 1.6;&quot;&gt;&#39;REQEUST_ID VARCHAR(64)&lt;/p&gt;&lt;p style=&quot;margin: 0px 0px 0px 4px; line-height: 1.6;&quot;&gt;`REQUEST_TIME` DATE NOT NULL COMMENT &#39;Transaction date&#39;,&lt;/p&gt;&lt;p style=&quot;margin: 0px 0px 0px 4px; line-height: 1.6;&quot;&gt;&#39;request_pass_through_params&#39; varchar &#39;tracking response to source system&#39;&lt;/p&gt;&lt;p style=&quot;margin: 0px 0px 0px 4px; line-height: 1.6;&quot;&gt;&lt;br&gt;&lt;/p&gt;&lt;p style=&quot;margin:0 0 0 4px;line-height:1.6;&quot;&gt;&lt;b&gt;`ENGAGMENT_CHANNEL` varchar(20) NOT NULL COMMENT &#39;EMAIL/SMS/APP_PUSH/IN_APP_PUSH/LINE&#39;,&lt;/b&gt;&lt;/p&gt;&lt;p style=&quot;margin:0 0 0 4px;line-height:1.6;&quot;&gt;&lt;br&gt;&lt;/p&gt;&lt;p style=&quot;margin:0 0 0 4px;line-height:1.6;&quot;&gt;‘MEMBER_INFO’ JSON&lt;/p&gt;&lt;p style=&quot;margin:0 0 0 4px;line-height:1.6;&quot;&gt;{&lt;/p&gt;&lt;p style=&quot;margin:0 0 0 4px;line-height:1.6;&quot;&gt;&lt;span style=&quot;white-space: pre;&quot;&gt;&#x9;&lt;/span&gt;&lt;span style=&quot;background-color: transparent; color: light-dark(rgb(0, 0, 0), rgb(255, 255, 255));&quot;&gt;`MEMBER_NUM` varchar(30) NOT NULL COMMENT &#39;Visible Card&#39;,&lt;/span&gt;&lt;br&gt;&lt;/p&gt;&lt;p style=&quot;margin: 0px 0px 0px 4px; line-height: 1.6;&quot;&gt;&lt;span style=&quot;white-space: pre;&quot;&gt;&#x9;&lt;/span&gt;`CARD_NUM` varchar(30) NOT NULL COMMENT &#39;Card Number&#39;,&lt;/p&gt;&lt;p style=&quot;margin: 0px 0px 0px 4px; line-height: 1.6;&quot;&gt;&lt;span style=&quot;white-space: pre;&quot;&gt;&#x9;&lt;/span&gt;`MOBILE_NUMBER` varchar(32) DEFAULT NULL COMMENT &#39;Mobile Number&#39;,&lt;/p&gt;&lt;p style=&quot;margin: 0px 0px 0px 4px; line-height: 1.6;&quot;&gt;&lt;span style=&quot;white-space: pre;&quot;&gt;&#x9;&lt;/span&gt;`EMAIL_ADDRESS` varchar(32) DEFAULT NULL COMMENT &#39;Email Address&#39;,&lt;/p&gt;&lt;p style=&quot;margin: 0px 0px 0px 4px; line-height: 1.6;&quot;&gt;&lt;span style=&quot;white-space: pre;&quot;&gt;&#x9;&lt;/span&gt;`MEMBER_ID` varchar(100) DEFAULT NULL COMMENT &#39;Person User Identifier&#39;,&lt;/p&gt;&lt;p style=&quot;margin:0 0 0 4px;line-height:1.6;&quot;&gt;}&lt;/p&gt;&lt;p style=&quot;margin:0 0 0 4px;line-height:1.6;&quot;&gt;&#39;CONTENT_INFO&#39; JOSN&lt;/p&gt;&lt;p style=&quot;margin:0 0 0 4px;line-height:1.6;&quot;&gt;{&lt;/p&gt;&lt;p style=&quot;margin:0 0 0 4px;line-height:1.6;&quot;&gt;&lt;span style=&quot;white-space: pre;&quot;&gt;&#x9;&lt;/span&gt;&lt;b style=&quot;background-color: transparent; color: light-dark(rgb(0, 0, 0), rgb(255, 255, 255));&quot;&gt;&#39;ENGAGEMENT_CONTENT_TYPE&#39; VARCHAR &#39;EMAIL SUBJECT | EMAIL BODY&#39;&lt;/b&gt;&lt;br&gt;&lt;/p&gt;&lt;p style=&quot;margin: 0px 0px 0px 4px; line-height: 1.6;&quot;&gt;&lt;span style=&quot;white-space: pre;&quot;&gt;&#x9;&lt;/span&gt;`ENGAGEMENT_TEMPLATE_ID` varchar(64) DEFAULT NULL COMMENT &#39;PMO Template Id/Third Party Id&#39;,&lt;/p&gt;&lt;p style=&quot;margin: 0px 0px 0px 4px; line-height: 1.6;&quot;&gt;&lt;span style=&quot;white-space: pre;&quot;&gt;&#x9;&lt;/span&gt;`&lt;span style=&quot;background-color: transparent; color: light-dark(rgb(0, 0, 0), rgb(255, 255, 255));&quot;&gt;ENGAGEMENT_&lt;/span&gt;&lt;span style=&quot;background-color: transparent; color: light-dark(rgb(0, 0, 0), rgb(255, 255, 255));&quot;&gt;TEMPLATE_NAME` varchar(100) DEFAULT NULL COMMENT &#39;PMO Template Name/Third Party Name&#39;,&lt;/span&gt;&lt;/p&gt;&lt;p style=&quot;margin: 0px 0px 0px 4px; line-height: 1.6;&quot;&gt;`&lt;span style=&quot;white-space: pre;&quot;&gt;&#x9;&lt;/span&gt;ENGAGEMENT_TEMPLATE_VARIABLES` JSON&lt;/p&gt;&lt;p style=&quot;margin: 0px 0px 0px 4px; line-height: 1.6;&quot;&gt;&lt;span style=&quot;color: light-dark(rgb(0, 0, 0), rgb(255, 255, 255)); background-color: transparent;&quot;&gt;&lt;span style=&quot;white-space: pre;&quot;&gt;&#x9;&lt;/span&gt;&#39;&lt;/span&gt;&lt;span style=&quot;color: light-dark(rgb(0, 0, 0), rgb(255, 255, 255)); background-color: transparent;&quot;&gt;ENGAGEMENT_CONTENT&lt;/span&gt;&lt;span style=&quot;color: light-dark(rgb(0, 0, 0), rgb(255, 255, 255)); background-color: transparent;&quot;&gt;&#39; TEXT&lt;/span&gt;&lt;/p&gt;&lt;p style=&quot;margin:0 0 0 4px;line-height:1.6;&quot;&gt;}&lt;/p&gt;&lt;p style=&quot;margin: 0px 0px 0px 4px; line-height: 1.6;&quot;&gt;&lt;br&gt;&lt;/p&gt;&lt;p style=&quot;margin:0 0 0 4px;line-height:1.6;&quot;&gt;&lt;span style=&quot;background-color: transparent; color: light-dark(rgb(0, 0, 0), rgb(255, 255, 255));&quot;&gt;`CREATE_TIME` datetime NOT NULL COMMENT &#39;Create Time&#39;,&lt;/span&gt;&lt;/p&gt;&lt;p style=&quot;margin:0 0 0 4px;line-height:1.6;&quot;&gt;`UPDATE_TIME` datetime NOT NULL COMMENT &#39;Last Update Time&#39;&lt;/p&gt;&lt;hr size=&quot;1&quot;&gt;&lt;p style=&quot;margin:0 0 0 4px;line-height:1.6;&quot;&gt;&lt;br&gt;&lt;/p&gt;" style="verticalAlign=top;align=left;overflow=fill;fontSize=14;fontFamily=Helvetica;html=1;rounded=0;shadow=0;comic=0;labelBackgroundColor=none;strokeWidth=1;" vertex="1" parent="1">
          <mxGeometry x="-944" y="1512" width="800" height="760" as="geometry" />
        </mxCell>
        <mxCell id="HNTKjAS1W8YU7pz285Al-2" value="&lt;div style=&quot;text-align: center;&quot;&gt;&lt;span style=&quot;background-color: initial;&quot;&gt;&lt;b&gt;AIMAS_ENGAGEMENT_MEMBER&lt;/b&gt;&lt;/span&gt;&lt;/div&gt;&lt;hr style=&quot;text-align: center;&quot; size=&quot;1&quot;&gt;&lt;p style=&quot;margin:0 0 0 4px;line-height:1.6;&quot;&gt;&lt;b&gt;&#39;ENGAGMENT_ID&#39;&lt;/b&gt;&lt;/p&gt;&lt;p style=&quot;margin:0 0 0 4px;line-height:1.6;&quot;&gt;`BU_CODE` varchar(32) NOT NULL COMMENT &#39;Bu Code&#39;,&lt;/p&gt;&lt;p style=&quot;margin:0 0 0 4px;line-height:1.6;&quot;&gt;&#39;CONTENT_ID&#39;&lt;/p&gt;&lt;p style=&quot;margin:0 0 0 4px;line-height:1.6;&quot;&gt;&lt;br&gt;&lt;/p&gt;&lt;p style=&quot;margin:0 0 0 4px;line-height:1.6;&quot;&gt;`MEMBER_NUM` varchar(30) NOT NULL COMMENT &#39;Visible Card&#39;,&lt;/p&gt;&lt;p style=&quot;margin:0 0 0 4px;line-height:1.6;&quot;&gt;`CARD_NUM` varchar(30) NOT NULL COMMENT &#39;Card Number&#39;,&lt;/p&gt;&lt;p style=&quot;margin:0 0 0 4px;line-height:1.6;&quot;&gt;`MOBILE_NUMBER` varchar(32) DEFAULT NULL COMMENT &#39;Mobile Number&#39;,&lt;/p&gt;&lt;p style=&quot;margin:0 0 0 4px;line-height:1.6;&quot;&gt;`EMAIL_ADDRESS` varchar(32) DEFAULT NULL COMMENT &#39;Email Address&#39;,&lt;/p&gt;&lt;p style=&quot;margin:0 0 0 4px;line-height:1.6;&quot;&gt;`MEMBER_ID` varchar(100) DEFAULT NULL COMMENT &#39;Person User Identifier&#39;,&lt;/p&gt;&lt;p style=&quot;margin:0 0 0 4px;line-height:1.6;&quot;&gt;`CREATE_TIME` datetime NOT NULL COMMENT &#39;Create Time&#39;,&lt;/p&gt;&lt;p style=&quot;margin:0 0 0 4px;line-height:1.6;&quot;&gt;`UPDATE_TIME` datetime NOT NULL COMMENT &#39;Last Update Time&#39;&lt;/p&gt;&lt;hr size=&quot;1&quot;&gt;&lt;p style=&quot;margin:0 0 0 4px;line-height:1.6;&quot;&gt;&lt;br&gt;&lt;/p&gt;" style="verticalAlign=top;align=left;overflow=fill;fontSize=14;fontFamily=Helvetica;html=1;rounded=0;shadow=0;comic=0;labelBackgroundColor=none;strokeWidth=1;" vertex="1" parent="1">
          <mxGeometry x="40" y="2375" width="800" height="325" as="geometry" />
        </mxCell>
        <mxCell id="HNTKjAS1W8YU7pz285Al-3" value="&lt;div style=&quot;text-align: center;&quot;&gt;&lt;span style=&quot;background-color: initial;&quot;&gt;&lt;b&gt;AIMAS_ENGAGEMENT_CONTENT&lt;/b&gt;&lt;/span&gt;&lt;/div&gt;&lt;hr style=&quot;text-align: center;&quot; size=&quot;1&quot;&gt;&lt;p style=&quot;margin:0 0 0 4px;line-height:1.6;&quot;&gt;&lt;b&gt;&#39;ENGAGEMENT_ID&#39;&lt;/b&gt;&lt;/p&gt;&lt;p style=&quot;margin:0 0 0 4px;line-height:1.6;&quot;&gt;&lt;br&gt;&lt;/p&gt;&lt;p style=&quot;margin:0 0 0 4px;line-height:1.6;&quot;&gt;&lt;b&gt;&#39;ENGAGEMENT_CONTENT_TYPE&#39; VARCHAR &#39;EMAIL SUBJECT | EMAIL BODY&#39;&lt;/b&gt;&lt;/p&gt;&lt;p style=&quot;margin: 0px 0px 0px 4px; line-height: 1.6;&quot;&gt;`ENGAGEMENT_TEMPLATE_ID` varchar(64) DEFAULT NULL COMMENT &#39;PMO Template Id/Third Party Id&#39;,&lt;/p&gt;&lt;p style=&quot;margin: 0px 0px 0px 4px; line-height: 1.6;&quot;&gt;`&lt;span style=&quot;background-color: transparent; color: light-dark(rgb(0, 0, 0), rgb(255, 255, 255));&quot;&gt;ENGAGEMENT_&lt;/span&gt;&lt;span style=&quot;background-color: transparent; color: light-dark(rgb(0, 0, 0), rgb(255, 255, 255));&quot;&gt;TEMPLATE_NAME` varchar(100) DEFAULT NULL COMMENT &#39;PMO Template Name/Third Party Name&#39;,&lt;/span&gt;&lt;/p&gt;&lt;p style=&quot;margin: 0px 0px 0px 4px; line-height: 1.6;&quot;&gt;`ENGAGEMENT_TEMPLATE_VARIABLES` JSON&lt;/p&gt;&lt;p style=&quot;margin: 0px 0px 0px 4px; line-height: 1.6;&quot;&gt;&lt;span style=&quot;color: light-dark(rgb(0, 0, 0), rgb(255, 255, 255)); background-color: transparent;&quot;&gt;&#39;&lt;/span&gt;&lt;span style=&quot;color: light-dark(rgb(0, 0, 0), rgb(255, 255, 255)); background-color: transparent;&quot;&gt;ENGAGEMENT_CONTENT&lt;/span&gt;&lt;span style=&quot;color: light-dark(rgb(0, 0, 0), rgb(255, 255, 255)); background-color: transparent;&quot;&gt;&#39; TEXT&lt;/span&gt;&lt;/p&gt;&lt;p style=&quot;margin:0 0 0 4px;line-height:1.6;&quot;&gt;&lt;b&gt;&lt;br&gt;&lt;/b&gt;&lt;/p&gt;&lt;p style=&quot;margin:0 0 0 4px;line-height:1.6;&quot;&gt;&lt;br&gt;&lt;/p&gt;&lt;p style=&quot;margin:0 0 0 4px;line-height:1.6;&quot;&gt;`CREATE_TIME` datetime NOT NULL COMMENT &#39;Create Time&#39;,&lt;/p&gt;&lt;p style=&quot;margin:0 0 0 4px;line-height:1.6;&quot;&gt;`UPDATE_TIME` datetime NOT NULL COMMENT &#39;Last Update Time&#39;&lt;/p&gt;&lt;hr size=&quot;1&quot;&gt;&lt;p style=&quot;margin:0 0 0 4px;line-height:1.6;&quot;&gt;&lt;br&gt;&lt;/p&gt;" style="verticalAlign=top;align=left;overflow=fill;fontSize=14;fontFamily=Helvetica;html=1;rounded=0;shadow=0;comic=0;labelBackgroundColor=none;strokeWidth=1;" vertex="1" parent="1">
          <mxGeometry x="40" y="2800" width="800" height="309" as="geometry" />
        </mxCell>
        <mxCell id="HNTKjAS1W8YU7pz285Al-4" value="&lt;div style=&quot;text-align: center;&quot;&gt;&lt;span style=&quot;background-color: initial;&quot;&gt;&lt;b&gt;AIMAS_ENGAGEMENT_TRACKING&lt;/b&gt;&lt;/span&gt;&lt;/div&gt;&lt;hr style=&quot;text-align: center;&quot; size=&quot;1&quot;&gt;&lt;p style=&quot;margin:0 0 0 4px;line-height:1.6;&quot;&gt;&lt;br&gt;&lt;/p&gt;&lt;p style=&quot;margin:0 0 0 4px;line-height:1.6;&quot;&gt;`BU_CODE` varchar(32) NOT NULL COMMENT &#39;Bu Code&#39;,&lt;/p&gt;&lt;p style=&quot;margin:0 0 0 4px;line-height:1.6;&quot;&gt;`ENGAGMENT_DETAIL_ID` bigint DEFAULT NULL COMMENT &#39;Unique Id&#39;,&lt;/p&gt;&lt;p style=&quot;margin:0 0 0 4px;line-height:1.6;&quot;&gt;`ENGAGEMENT_CHANNEL_ID` bigint DEFAULT NULL COMMENT &#39;Unique Id, Delivery Channel return&#39;,&lt;/p&gt;&lt;p style=&quot;margin:0 0 0 4px;line-height:1.6;&quot;&gt;&lt;br&gt;&lt;/p&gt;&lt;p style=&quot;margin:0 0 0 4px;line-height:1.6;&quot;&gt;&#39;MESSAGE&#39; VARCHAR(512)&lt;/p&gt;&lt;p style=&quot;margin:0 0 0 4px;line-height:1.6;&quot;&gt;`EVENT_TYPE` varchar(15) NOT NULL COMMENT &#39;&#39;,&lt;/p&gt;&lt;p style=&quot;margin:0 0 0 4px;line-height:1.6;&quot;&gt;&lt;br&gt;&lt;/p&gt;&lt;p style=&quot;margin:0 0 0 4px;line-height:1.6;&quot;&gt;`CREATE_TIME` datetime NOT NULL COMMENT &#39;Create Time&#39;,&lt;/p&gt;&lt;p style=&quot;margin:0 0 0 4px;line-height:1.6;&quot;&gt;`UPDATE_TIME` datetime NOT NULL COMMENT &#39;Last Update Time&#39;&lt;/p&gt;&lt;hr size=&quot;1&quot;&gt;&lt;p style=&quot;margin:0 0 0 4px;line-height:1.6;&quot;&gt;&lt;br&gt;&lt;/p&gt;" style="verticalAlign=top;align=left;overflow=fill;fontSize=14;fontFamily=Helvetica;html=1;rounded=0;shadow=0;comic=0;labelBackgroundColor=none;strokeWidth=1;" vertex="1" parent="1">
          <mxGeometry x="-944" y="3574" width="800" height="288" as="geometry" />
        </mxCell>
        <mxCell id="HNTKjAS1W8YU7pz285Al-13" style="edgeStyle=orthogonalEdgeStyle;rounded=0;orthogonalLoop=1;jettySize=auto;html=1;" edge="1" parent="1" source="HNTKjAS1W8YU7pz285Al-5" target="HNTKjAS1W8YU7pz285Al-3">
          <mxGeometry relative="1" as="geometry" />
        </mxCell>
        <mxCell id="HNTKjAS1W8YU7pz285Al-15" style="edgeStyle=orthogonalEdgeStyle;rounded=0;orthogonalLoop=1;jettySize=auto;html=1;entryX=0.5;entryY=0;entryDx=0;entryDy=0;endArrow=none;startFill=0;" edge="1" parent="1" source="HNTKjAS1W8YU7pz285Al-5" target="HNTKjAS1W8YU7pz285Al-6">
          <mxGeometry relative="1" as="geometry" />
        </mxCell>
        <mxCell id="HNTKjAS1W8YU7pz285Al-5" value="&lt;div style=&quot;text-align: center;&quot;&gt;&lt;span style=&quot;background-color: initial;&quot;&gt;&lt;b&gt;AIMAS_ENGAGEMENT&lt;/b&gt;&lt;/span&gt;&lt;/div&gt;&lt;hr style=&quot;text-align: center;&quot; size=&quot;1&quot;&gt;&lt;p style=&quot;margin:0 0 0 4px;line-height:1.6;&quot;&gt;ID&amp;nbsp; BIGINT AUTOINCREMENT&lt;/p&gt;&lt;p style=&quot;margin:0 0 0 4px;line-height:1.6;&quot;&gt;&lt;br&gt;&lt;/p&gt;&lt;p style=&quot;margin:0 0 0 4px;line-height:1.6;&quot;&gt;`BU_CODE` varchar(32) NOT NULL COMMENT &#39;Bu Code&#39;,&lt;b&gt;&lt;/b&gt;&lt;/p&gt;&lt;p style=&quot;margin:0 0 0 4px;line-height:1.6;&quot;&gt;&#39;SOURCE_CHANNEL&#39; VARCHAR(32)&lt;/p&gt;&lt;p style=&quot;margin: 0px 0px 0px 4px; line-height: 1.6;&quot;&gt;&#39;REQEUST_ID VARCHAR(64)&lt;/p&gt;&lt;p style=&quot;margin:0 0 0 4px;line-height:1.6;&quot;&gt;&lt;br&gt;&lt;/p&gt;&lt;p style=&quot;margin:0 0 0 4px;line-height:1.6;&quot;&gt;`ENGAGEMENT_ID` VARCHAR DEFAULT NULL COMMENT &#39;Unique Id, adobe use&#39;,&lt;/p&gt;&lt;p style=&quot;margin:0 0 0 4px;line-height:1.6;&quot;&gt;`ENGAGEMENT_TIME` datetime DEFAULT NULL COMMENT &#39;Message response time&#39;,&lt;/p&gt;&lt;p style=&quot;margin:0 0 0 4px;line-height:1.6;&quot;&gt;&#39;ENGAGEMENT&lt;span style=&quot;background-color: transparent; color: light-dark(rgb(0, 0, 0), rgb(255, 255, 255));&quot;&gt;_CONTENT_PARAMS&lt;/span&gt;&lt;span style=&quot;background-color: transparent; color: light-dark(rgb(0, 0, 0), rgb(255, 255, 255));&quot;&gt;&#39; JSON&lt;/span&gt;&lt;/p&gt;&lt;p style=&quot;margin:0 0 0 4px;line-height:1.6;&quot;&gt;&lt;br&gt;&lt;/p&gt;&lt;p style=&quot;margin:0 0 0 4px;line-height:1.6;&quot;&gt;`ENGAGEMENT_CHANNEL_ID` bigint DEFAULT NULL COMMENT &#39;Unique Id, Delivery Channel return&#39;,&lt;/p&gt;&lt;p style=&quot;margin:0 0 0 4px;line-height:1.6;&quot;&gt;`ENGAGEMENT_CHANNEL_TIME` datetime DEFAULT NULL COMMENT &#39;Message response time&#39;,&lt;/p&gt;&lt;p style=&quot;margin:0 0 0 4px;line-height:1.6;&quot;&gt;&lt;br&gt;&lt;/p&gt;&lt;p style=&quot;margin:0 0 0 4px;line-height:1.6;&quot;&gt;`STATUS` varchar(15) NOT NULL COMMENT &#39;REQUEST STATUS&#39;,&lt;/p&gt;&lt;p style=&quot;margin:0 0 0 4px;line-height:1.6;&quot;&gt;`VERSION` TINYINT NOT NULL DEFAULT &#39;-1&#39; COMMENT &#39;Status Version Mechanism&#39;,&lt;/p&gt;&lt;p style=&quot;margin:0 0 0 4px;line-height:1.6;&quot;&gt;`CREATE_TIME` datetime NOT NULL COMMENT &#39;Create Time&#39;,&lt;/p&gt;&lt;p style=&quot;margin:0 0 0 4px;line-height:1.6;&quot;&gt;`UPDATE_TIME` datetime NOT NULL COMMENT &#39;Last Update Time&#39;&lt;/p&gt;&lt;hr size=&quot;1&quot;&gt;&lt;p style=&quot;margin:0 0 0 4px;line-height:1.6;&quot;&gt;&lt;br&gt;&lt;/p&gt;" style="verticalAlign=top;align=left;overflow=fill;fontSize=14;fontFamily=Helvetica;html=1;rounded=0;shadow=0;comic=0;labelBackgroundColor=none;strokeWidth=1;" vertex="1" parent="1">
          <mxGeometry x="-944" y="2375" width="800" height="485" as="geometry" />
        </mxCell>
        <mxCell id="HNTKjAS1W8YU7pz285Al-17" style="edgeStyle=orthogonalEdgeStyle;rounded=0;orthogonalLoop=1;jettySize=auto;html=1;entryX=0.5;entryY=0;entryDx=0;entryDy=0;endArrow=none;startFill=0;" edge="1" parent="1" source="HNTKjAS1W8YU7pz285Al-6" target="HNTKjAS1W8YU7pz285Al-4">
          <mxGeometry relative="1" as="geometry" />
        </mxCell>
        <mxCell id="HNTKjAS1W8YU7pz285Al-6" value="&lt;div style=&quot;text-align: center;&quot;&gt;&lt;span style=&quot;background-color: initial;&quot;&gt;&lt;b&gt;AIMAS_ENGAGEMENT_DETAIL&lt;/b&gt;&lt;/span&gt;&lt;/div&gt;&lt;hr style=&quot;text-align: center;&quot; size=&quot;1&quot;&gt;&lt;p style=&quot;margin:0 0 0 4px;line-height:1.6;&quot;&gt;ID&amp;nbsp; BIGINT AUTOINCREMENT&lt;/p&gt;&lt;p style=&quot;margin:0 0 0 4px;line-height:1.6;&quot;&gt;&lt;br&gt;&lt;/p&gt;&lt;p style=&quot;margin:0 0 0 4px;line-height:1.6;&quot;&gt;`BU_CODE` varchar(32) NOT NULL COMMENT &#39;Bu Code&#39;,&lt;/p&gt;&lt;p style=&quot;margin:0 0 0 4px;line-height:1.6;&quot;&gt;`ENGAGEMENT_ID` VARCHAR DEFAULT NULL COMMENT &#39;Unique Id, adobe use&#39;,&lt;/p&gt;&lt;p style=&quot;margin:0 0 0 4px;line-height:1.6;&quot;&gt;&lt;br&gt;&lt;/p&gt;&lt;p style=&quot;margin:0 0 0 4px;line-height:1.6;&quot;&gt;`STATUS` varchar(15) NOT NULL COMMENT &#39;Unset、Pending、Delivering、Delivered、Failed、Open、Click、Impressions&#39;,&lt;/p&gt;&lt;p style=&quot;margin:0 0 0 4px;line-height:1.6;&quot;&gt;`VERSION` TINYINT NOT NULL DEFAULT &#39;-1&#39; COMMENT &#39;Status Version Mechanism&#39;,&lt;/p&gt;&lt;p style=&quot;margin:0 0 0 4px;line-height:1.6;&quot;&gt;&lt;br&gt;&lt;/p&gt;&lt;p style=&quot;margin:0 0 0 4px;line-height:1.6;&quot;&gt;&#39;&lt;b style=&quot;background-color: transparent; color: light-dark(rgb(0, 0, 0), rgb(255, 255, 255)); text-align: center;&quot;&gt;ENGAGEMENT_MEMBER_ID&lt;/b&gt;&lt;span style=&quot;background-color: transparent; color: light-dark(rgb(0, 0, 0), rgb(255, 255, 255));&quot;&gt;&#39;&lt;br&gt;&lt;/span&gt;&#39;&lt;b style=&quot;color: light-dark(rgb(0, 0, 0), rgb(255, 255, 255)); background-color: transparent; text-align: center;&quot;&gt;ENGAGEMENT_CONTENT_ID&lt;/b&gt;&lt;span style=&quot;color: light-dark(rgb(0, 0, 0), rgb(255, 255, 255)); background-color: transparent;&quot;&gt;&#39;&lt;/span&gt;&lt;span style=&quot;background-color: transparent; color: light-dark(rgb(0, 0, 0), rgb(255, 255, 255));&quot;&gt;&lt;/span&gt;&lt;/p&gt;&lt;p style=&quot;margin:0 0 0 4px;line-height:1.6;&quot;&gt;&#39;&lt;b style=&quot;color: light-dark(rgb(0, 0, 0), rgb(255, 255, 255)); background-color: transparent; text-align: center;&quot;&gt;ENGAGEMENT_CONTENT_PARAMS&lt;/b&gt;&lt;span style=&quot;color: light-dark(rgb(0, 0, 0), rgb(255, 255, 255)); background-color: transparent;&quot;&gt;&#39; JSON&lt;/span&gt;&lt;/p&gt;&lt;p style=&quot;margin:0 0 0 4px;line-height:1.6;&quot;&gt;&lt;br&gt;&lt;/p&gt;&lt;p style=&quot;margin:0 0 0 4px;line-height:1.6;&quot;&gt;&lt;br&gt;&lt;/p&gt;&lt;p style=&quot;margin:0 0 0 4px;line-height:1.6;&quot;&gt;`CREATE_TIME` datetime NOT NULL COMMENT &#39;Create Time&#39;,&lt;/p&gt;&lt;p style=&quot;margin:0 0 0 4px;line-height:1.6;&quot;&gt;`UPDATE_TIME` datetime NOT NULL COMMENT &#39;Last Update Time&#39;&lt;/p&gt;&lt;hr size=&quot;1&quot;&gt;&lt;p style=&quot;margin:0 0 0 4px;line-height:1.6;&quot;&gt;&lt;br&gt;&lt;/p&gt;" style="verticalAlign=top;align=left;overflow=fill;fontSize=14;fontFamily=Helvetica;html=1;rounded=0;shadow=0;comic=0;labelBackgroundColor=none;strokeWidth=1;" vertex="1" parent="1">
          <mxGeometry x="-944" y="2950" width="800" height="506" as="geometry" />
        </mxCell>
        <mxCell id="HNTKjAS1W8YU7pz285Al-9" value="request_id, 1:N" style="text;html=1;align=center;verticalAlign=middle;whiteSpace=wrap;rounded=0;fontSize=14;fontStyle=1" vertex="1" parent="1">
          <mxGeometry x="-530" y="2309" width="110" height="30" as="geometry" />
        </mxCell>
        <mxCell id="HNTKjAS1W8YU7pz285Al-11" style="edgeStyle=orthogonalEdgeStyle;rounded=0;orthogonalLoop=1;jettySize=auto;html=1;entryX=0.004;entryY=0.371;entryDx=0;entryDy=0;entryPerimeter=0;endArrow=none;startFill=0;" edge="1" parent="1" source="HNTKjAS1W8YU7pz285Al-5" target="HNTKjAS1W8YU7pz285Al-2">
          <mxGeometry relative="1" as="geometry" />
        </mxCell>
        <mxCell id="HNTKjAS1W8YU7pz285Al-12" value="engagement_id, 1:N" style="text;html=1;align=center;verticalAlign=middle;whiteSpace=wrap;rounded=0;fontSize=14;fontStyle=1" vertex="1" parent="1">
          <mxGeometry x="-130" y="2530" width="140" height="30" as="geometry" />
        </mxCell>
        <mxCell id="HNTKjAS1W8YU7pz285Al-14" value="engagement_id, 1:N" style="text;html=1;align=center;verticalAlign=middle;whiteSpace=wrap;rounded=0;fontSize=14;fontStyle=1" vertex="1" parent="1">
          <mxGeometry x="-130" y="2810" width="140" height="30" as="geometry" />
        </mxCell>
        <mxCell id="HNTKjAS1W8YU7pz285Al-16" value="engagement_id, 1:N" style="text;html=1;align=center;verticalAlign=middle;whiteSpace=wrap;rounded=0;fontSize=14;fontStyle=1" vertex="1" parent="1">
          <mxGeometry x="-530" y="2893" width="140" height="30" as="geometry" />
        </mxCell>
        <mxCell id="HNTKjAS1W8YU7pz285Al-18" value="engagement_id, 1:N" style="text;html=1;align=center;verticalAlign=middle;whiteSpace=wrap;rounded=0;fontSize=14;fontStyle=1" vertex="1" parent="1">
          <mxGeometry x="-540" y="3507" width="140" height="30" as="geometry" />
        </mxCell>
      </root>
    </mxGraphModel>
  </diagram>
</mxfile>
